# xmcd
#
# Track frame offsets:
#	150
#	13927
#	32105
#	47938
#	64272
#	80295
#	91952
#	107624
#	122793
#	138575
#	153131
#	167871
#	182369
#	198151
#	211859
#	223927
#	238977
#	250225
#	266518
#	279185
#
# Disc length: 3925 seconds
#
# Revision: 1
# Processed by: cddbd v1.5.2PL0 Copyright (c) Steve Scherf et al.
# Submitted via: dBpowerAMP V4.0
#
DISCID=1d0f5314
DTITLE=Various Artist - MM Hott Country Volume 234 Canada
DYEAR=2015
DGENRE=Country
TTITLE0=Blake Shelton - Gonna
TTITLE1=Luke Bryan - Strip it Down
TTITLE2=Tim McGraw - Top Of The World
TTITLE3=Emerson Drive - Til The Summer's Gone
TTITLE4=Kacey Musgraves - Dime Store Cowgirl
TTITLE5=Canaan Smith - Hole In A Bottle
TTITLE6=Cassadee Pope - I Am Invincible
TTITLE7=Ronnie Dunn - Ain't No Trucks In Texas
TTITLE8=Steven Tyler - Love Is Your Name
TTITLE9=Mo Pitney - Country
TTITLE10=Tim Hicks - Young Alive And In Love
TTITLE11=Bucko and Toad - Any Excuse
TTITLE12=Jason Blaine - Travellin' Light
TTITLE13=Madeline Merlo - Honey Jack
TTITLE14=Samara Yung ft. Codie Prevost - You Brought The Party
TTITLE15=Lucy Angel - Crazy Too
TTITLE16=Waterloo Revival - Bad For You
TTITLE17=Toby Keith - 35 MPH Town
TTITLE18=James Otto - Somewhere Tonight
TTITLE19=Cold Creek Country - Our Town
EXTD=
EXTT0=
EXTT1=
EXTT2=
EXTT3=
EXTT4=
EXTT5=
EXTT6=
EXTT7=
EXTT8=
EXTT9=
EXTT10=
EXTT11=
EXTT12=
EXTT13=
EXTT14=
EXTT15=
EXTT16=
EXTT17=
EXTT18=
EXTT19=
PLAYORDER=
